Patient4_TMGait_0pt5_01_right_09_EMG.mot
version=1
nRows=33
nColumns=33
inDegrees=no
endheader
time	1LAddLong	2LGlutMax	3LGlutMed	4LIliopsoas	5LSemiMemb	6LBicFemLong	7LRecFem	8LVastMed	9LVastLat	10LGasMed	11LTibAnt	12lTibPost	13LPeroneusLong	14LSol	15LExtDigLong	16LFlexDigLong	17RAddLong	18RGlutMax	19RGlutMed	20RIliopsoas	21RSemiMemb	22RBicFemLong	23RRecFem	24RVastMed	25RVastLat	26RGasMed	27RTibAnt	28RTibPost	29RPeroneusLong	30RSol	31RExtDigLong	32RFlexDigLong
12.4	0.029602	0.071259	0.01297	-0.027161	0.16434	-0.037689	0.014496	-0.00351	-0.085297	0.019531	-0.084534	-0.00061	0.21927	-0.07431	-0.17639	0.017548	-0.017242	-0.09201	-0.19943	0.024109	-0.065918	0.030823	-0.35797	0.007172	-0.007629	-0.25391	0.051117	-0.049438	-0.20508	-0.12482	-0.003357	-0.03006
12.401	0.022125	0.075226	0.007172	0.00412	0.048828	0.075073	0.01709	0.000458	-0.077209	0.038147	-0.08606	0.006409	-0.029297	-0.070953	-0.13214	0.006866	-0.040894	-0.2179	-0.12375	0.035095	0.019379	0.11856	-0.34759	0.045013	-0.011902	-0.3418	-0.041656	-0.10819	-0.49561	-0.24902	-0.003052	-0.025024
12.402	0.016174	0.06424	0.019531	-0.014343	0.028687	0.15152	0.024567	0.003815	-0.049286	0.048218	-0.048981	-0.001984	-0.27542	-0.057983	-0.10346	0.014496	-0.031891	-0.25955	-0.10696	-0.00885	0.055695	0.15869	-0.33646	-0.025177	-0.021515	-0.14984	-0.068665	-0.030212	-0.30014	-0.10315	-0.003052	-0.030365
12.403	0.002899	0.083313	0.041809	0.001526	0.055084	0.22263	0.018311	0.003204	-0.015259	0.053558	-0.058441	0.011902	0.16327	-0.030212	-0.08255	0.021515	-0.024261	-0.33569	-0.088043	-0.017548	-0.10376	0.27924	-0.31601	-0.078735	-0.040131	0.083313	-0.078735	-0.079193	0.3273	0.50384	-0.004578	-0.027466
12.404	0.022125	0.080109	0.029907	-0.016327	-0.003052	0.28015	0.036774	-0.000153	-0.006409	0.05127	-0.048676	0.008392	0.4126	-0.019531	-0.035095	0.02182	-0.052948	-0.31448	-0.11246	0.00824	-0.045013	0.30411	-0.29327	0.000153	-0.016937	0.14648	-0.039368	-0.21316	0.54947	1.1981	-0.002899	-0.031738
12.405	0.025177	0.12344	0.008545	-0.00351	-0.1001	0.21683	0.07019	-0.001831	0.029602	0.023956	-0.070038	0.000153	0.28732	0	0.029144	0.018158	-0.084381	-0.26276	-0.13199	0.063324	-0.11322	0.27939	-0.34531	-0.00061	0.001068	0.13718	-0.028229	-0.013733	0.49347	1.5047	0.001068	-0.025787
12.406	0.035095	0.070343	-0.012207	-0.011292	-0.062561	0.14633	0.121	-0.012665	0.11429	0.007477	-0.028839	0.013275	0.024109	0.060577	0.059357	0.0177	-0.05249	-0.35812	-0.087891	-0.007172	-0.049286	0.18158	-0.35141	-0.000763	-0.00061	0.066986	-0.007629	0.041199	0.5188	0.78659	-0.00412	-0.037842
12.407	0.029755	0.018768	-0.00351	-0.005951	-0.003204	0.10269	0.089111	-0.007324	0.13779	0.02594	-0.022888	0.019836	-0.41855	0.11017	0.056763	0.010681	-0.038605	-0.3627	-0.05661	-0.046692	-0.019073	0.054016	-0.33096	0.02655	-0.00351	0.020905	-0.010834	0.3305	0.39688	0.00824	-0.000305	-0.029449
12.408	0.008392	0.037537	-0.026855	-0.015259	0.043488	0.13428	0.016632	0.013733	0.14008	0.018768	-0.006256	0.016937	-0.15808	0.079651	-0.014191	0.012054	-0.012512	-0.31891	-0.15656	-0.027313	0.042877	-0.088196	-0.35217	-0.00351	-0.008392	-0.020752	0.019073	0.3183	0.19974	0.25955	-0.003357	-0.026093
12.409	-0.010223	0.019989	0.020599	-0.006714	0.1059	0.12558	0.00885	0.033112	0.1413	0.009918	0.014343	0.006561	0.077057	0.045319	-0.032654	0.007172	0.019226	-0.3688	-0.11658	0.015717	-0.1294	-0.13733	-0.32181	-0.023651	-0.030212	0.001984	0.05661	-0.2565	0.055542	1.1935	-0.001678	-0.002594
12.41	-0.020142	0.018921	0.077972	-0.024719	0.041046	0.006714	0.047455	0.024414	0.12528	0.022278	-0.005646	0.012512	0.061798	0.041199	-0.006561	0.008698	0.018921	-0.33341	-0.083008	0.064087	-0.43625	-0.098877	-0.35843	-0.008392	0.00412	0.089722	0.07782	0.23453	-0.085602	1.4114	0.002441	-0.003967
12.411	-0.036774	-0.005341	0.02533	-0.021667	-0.02533	-0.071716	0.033722	0.018463	0.06958	0.0354	0.005035	0.021667	0.010376	0.030518	-0.018311	0.01358	-0.014343	-0.31952	-0.10849	0.078125	-0.18524	-0.081635	-0.41092	0.069885	0.007477	0.112	0.092926	0.168	-0.15732	0.77316	-0.003662	0
12.412	-0.042725	0.018768	0.045166	0.020294	-0.093384	-0.009766	0.070953	0.003815	-0.007629	0.051575	0.032349	0.021057	-0.017548	-0.02655	-0.028687	0.001068	-0.036774	-0.34454	0.00885	0.034943	0.24231	-0.13931	-0.53192	0.071869	0.031433	0.062714	0.15152	0.036621	-0.21881	-0.19012	-0.002594	-0.00885
12.413	-0.028381	0.007477	0.082703	-0.005646	-0.086823	-0.056	0.067749	-0.00351	-0.087738	0.055695	0.020447	0.012665	-0.010834	0.04425	0.026245	0.019531	-0.011292	-0.31693	-0.061493	0.030365	0.4274	-0.3305	-0.42206	0.023193	0.045929	0.059357	0.15091	0.021057	-0.1561	-0.64133	0.001221	-0.005188
12.414	-0.010681	-0.11093	0.037842	-0.002441	0.023804	-0.19821	0.075989	-0.011139	-0.17471	0.065002	0.0354	0.012512	-0.051727	0.09613	0.027466	0.012054	0.023804	-0.27573	-0.10559	-0.03479	0.33554	-0.32349	-0.35172	-0.050049	0.036926	0.028839	0.025024	-0.024109	-0.10941	-0.59555	0.009308	-0.018005
12.415	0.001221	-0.094147	0.018005	-0.017548	0.097046	-0.1799	0.062866	-0.019226	-0.23499	0.056458	0.029297	0.02655	0.08255	0.12146	0.021362	0.015564	0.014343	-0.21698	-0.13809	-0.023956	0.028992	-0.27176	-0.29739	-0.043945	0.035095	0.01358	-0.034485	-0.028076	-0.17395	-0.68192	-0.00473	-0.023499
12.416	-0.005035	-0.071869	0.02594	-0.012054	0.12054	-0.3862	0.070038	-0.014191	-0.2005	0.029297	0.00061	0.021973	0.18936	0.1001	0.000305	0.006866	0.00885	-0.19486	-0.11734	-0.046387	-0.10437	-0.22903	-0.2211	-0.055389	0.004883	0.002747	0.12894	-0.001373	-0.3038	-0.54779	-0.002289	-0.024109
12.417	0.007629	-0.023041	0.025787	-0.001373	0.060577	-0.54688	0.077667	-0.006409	-0.11368	0.054779	0.037079	0.015106	-0.10574	0.050812	-0.010681	0.001831	0.014191	-0.18143	-0.13977	-0.048981	-0.10208	-0.17502	-0.21957	-0.007324	-0.015106	0.039215	0.26199	-0.045929	-0.2417	-0.34286	-0.000916	-0.025482
12.418	0.001678	-0.01709	0.037994	-0.002441	-0.003052	-0.3772	0.062256	-0.008698	-0.003815	0.045166	0.041199	0.007019	-0.36438	0.079346	-0.001068	0.007477	-0.007324	-0.24384	0.039368	-0.030975	-0.11734	-0.019073	-0.242	-0.002136	-0.041809	0.044708	0.11337	-0.036774	-0.087738	-0.29205	-0.003052	-0.024414
12.419	0.018158	-0.000305	0.037689	-0.00061	-0.046082	-0.1738	0.010529	-0.010834	0.079651	0.019989	0.027924	0.016632	-0.26596	0.096283	0.00473	-0.001373	-0.020905	-0.3183	-0.014496	-0.04425	-0.31815	0.14374	-0.22919	-0.040131	-0.038605	0.024567	-0.18784	-0.036774	0.046082	-0.35263	-0.004883	-0.028381
12.42	0.022278	0.009766	0.053253	-0.002747	-0.058441	-0.06073	-0.002899	-0.004578	0.12985	0.017395	0.014954	0.012054	-0.10132	0.078125	-0.025024	-0.00824	-0.020599	-0.31799	-0.050812	-0.000153	-0.0177	-0.010986	-0.25543	0.020599	-0.026855	0.00824	-0.5455	-0.039825	0.18005	-0.32257	-0.001068	-0.019531
12.421	0.012054	0.051422	0.050507	0.004425	-0.001373	0.042572	0.03006	-0.001831	0.11093	0.03006	0.016479	0.020142	-0.048828	0.12512	-0.02121	0.005951	-0.018616	-0.34317	0.0354	0.018311	0.015564	-0.081177	-0.35263	0.040588	0.023193	0.001221	-0.46875	-0.035095	0.3035	-0.27374	-0.001526	-0.032806
12.422	0.00824	0.064087	0.017395	0.005798	0.007172	0.069275	0.078735	-0.002441	-0.017853	0.020752	0.02182	0.014801	0.11475	0.22812	0.020599	-0.001221	0.00412	-0.32928	0.12665	-0.01709	0.021362	-0.11536	-0.42709	0.044556	0.020294	0.001831	-0.20309	-0.031891	0.18845	-0.22324	0.00351	-0.040283
12.423	0.01236	0.11124	0.018005	-0.013428	-0.005646	0.057678	0.12268	0.000458	-0.16586	0.004272	0.017242	0.014496	0.25238	0.31174	0.038605	-0.00061	0.037537	-0.3421	0.096588	0.012512	0.06958	-0.029449	-0.41351	0.019989	0.040894	-0.005341	-0.043488	-0.034332	0.11292	-0.11993	-0.001678	-0.031738
12.424	0.008698	0.072479	0.0354	-0.002441	0.020752	0.051422	0.092926	0.005035	-0.23422	-0.007324	0.014038	0.010529	0.28351	0.32059	0.018311	-0.001831	0.011139	-0.35034	0.071411	0.023804	0.067444	0.11688	-0.38605	0.073547	0.052795	-0.006256	0.071869	-0.019684	0.029297	-0.12985	-0.001526	-0.040131
12.425	0.007782	0.09552	0.072021	-0.01709	0.028229	0.002289	0.11612	0.003815	-0.16968	-0.005341	0.027313	0.010071	-0.12344	0.27268	-0.010223	-0.013275	0.018463	-0.35919	0.10956	0.034637	0.30487	-0.027771	-0.36926	0.028687	0.042725	-0.005035	0.090027	-0.019684	0.008087	-0.19073	-0.001526	-0.029602
12.426	0.007935	0.09491	0.081177	-0.01709	0.023346	0.019684	0.057373	0.005493	0.015259	0.018005	0.02121	0.014038	-0.12451	0.2005	-0.057678	-0.015106	0.072021	-0.34897	0.177	0.031891	0.11551	-0.020294	-0.33829	-0.039978	0.020905	-0.000305	0.14893	-0.022125	-0.043488	-0.22919	-0.00061	-0.027466
12.427	-0.007019	0.10071	0.059814	-0.013733	-0.079041	0.033264	0.007172	0.010529	0.02594	0.009003	0.019531	0.003052	0.094757	0.16907	-0.093842	-0.023193	0.075531	-0.3479	0.097656	0.000763	0.10925	0.13031	-0.32562	-0.092163	0.002594	-0.001068	0.17075	-0.017395	-0.058899	-0.24414	-0.003357	-0.02243
12.428	0.000305	0.12253	0.036316	-0.002899	-0.15503	0.046387	0.070496	0.002136	-0.048218	-0.012054	0.03006	0.010834	-0.3717	0.16541	-0.063019	-0.019226	0.070496	-0.33218	0.12482	-0.032349	0.049591	0.12054	-0.3183	-0.056915	0.017395	0.000153	0.12787	-0.017853	0.013275	-0.26535	-0.002441	-0.024567
12.429	-0.001831	0.09491	0.0177	0.006104	-0.087128	0.021057	0.070648	-0.003662	-0.12314	-0.023041	0.049438	0.005493	-0.33066	0.20172	-0.003815	-0.023956	0.047607	-0.35202	0.15579	-0.009766	0.11169	-0.098877	-0.28397	-0.098724	-0.000458	0.000763	0.066376	-0.017242	0.10803	-0.15274	-0.009766	-0.018005
12.43	-0.00412	0.089111	-0.003052	0	-0.096741	0.018768	0.029907	0.003967	-0.18158	-0.044708	0.060577	0.009308	0.551	0.23956	0.060577	-0.038147	0.035858	-0.38452	0.15411	-0.017853	0.007782	-0.26291	-0.3154	-0.084839	0.009308	0.005493	0.068207	-0.014954	0.14725	-0.048523	-0.006714	-0.021515
12.431	0.007324	0.073242	0.009308	-0.007477	-0.032349	-0.043488	0.029907	-0.039368	-0.20309	-0.046082	0.042114	0.009766	0.035858	0.29007	0.054932	-0.027008	0.036926	-0.40802	0.12711	-0.026093	0.050049	-0.21759	-0.28061	-0.091248	0.002289	0.014954	0.095215	-0.010376	-0.1355	0.1181	-0.005951	-0.02533
12.432	0.011902	0.065765	0.008545	-0.005493	0.023499	-0.057983	-0.054474	-0.015259	-0.17029	-0.055084	0.048828	0.010986	-0.42816	0.26398	0.034637	-0.027618	-0.024872	-0.36789	0.13886	-0.015259	-0.38559	-0.14526	-0.28	0.036774	0.018921	0.001526	0.14694	-0.013123	-0.25345	0.27741	0.001221	-0.033569
